<?xml version="1.0" encoding="UTF-8" standalone="no"?>
<svg xmlns="http://www.w3.org/2000/svg" class="borboleta" baseProfile="tiny" version="1.1" xmlns:xlink="http://www.w3.org/1999/xlink" viewBox="0 0 500 500">
 <style>.borboleta { fill: #fff; opacity: .1; }.interior { fill: #e53935; }.detalhe { fill: #fff; }</style>
 <g class="corpo">
  <path class="base" d="m344.5 285.5c-4.3 2.4-11.2 2.8-13.2 8-0.7 1.9-0.4 4.4-0.9 6.4-1 3.7-2.5 6.2-3.3 7.5-5.8 9.4-5.4 13-12 22.6-1.8 2.6-6 8.7-13 15.3-8.2 7.6-12 8.2-14 13.8-1.8 4.9-1.3 11.5 2 16 3.8 5.3 8.7 3.9 10.8 8.2 2.4 5-4 14.7-5.2 19.6-3.2 12.5-0.4 27.8 7.9 37.9 3.1 3.7 7.3 5.3 6.4-1.3-0.9-6.2-3.3-11.8-3.5-18.2-0.3-7.4 1.4-14.3 4.3-21.1 3.1-7.3 7.6-14.2 5.3-22.4-1.5-5.3-5-9.7-7.4-14.6-3-6 1.5-11.2 6.7-14.4 5.4-3.3 12-4.2 17.1-8 6.5-4.9 4.5-10.9 3.6-17.8-0.4-2.7-0.9-6.5 1.9-8.2 1.7-1.1 4.7-0.2 6.6-0.9 5.7-2.1 6.5-7.5 8.5-12.4 0.6-1.8 1.5-5.8-0.1-10.1-0.6-1.7-2-5.4-5.3-6.1-1.3-0.3-2.5-0.1-3.2 0.2z"/>
  <g class="antenas">
   <path class="fundo" d="m353 301.5c2.9-7.2 9.1-12.3 15-17.2 10.2-8.6 19.5-19.3 23.4-32.3 3.3-11.4 3.2-23.9 1.8-35.6-1.5-12.8-4.2-26.2 0.2-38.8 3.6-10.4 15.6-18.7 26.7-17.6 12.4 1.3 23.7 15.8 16.5 27.8-4.2 6.9-7 2.9-12.7 1.6-5.3-1.3-11 4.4-7.8 9.5 2.9 4.5 10.6 5.4 15.2 3.9 6.2-2 10.8-8.2 12.6-14.3 3.4-10.8-0.8-24.4-10.1-31-12.6-8.9-31.7-2.6-41.4 7.8-11.8 12.5-9.3 30.9-7.6 46.6 1.9 18.2 2.8 35-7.2 51.2-5.5 8.9-13.5 16.9-22 23-2.9 2.3-5.8 4.6-8.8 6.9-0.4-0.2-1-0.4-1.7-0.4-1.7-0.1-4.3 0.4-5.3 2.4-1.1 2.4 0.8 5 1.3 5.5 1.4 1.9 3.4 2.4 4.2 2.7 2.4 0.7 4.3 0.2 4.8 0 1.4-0.5 1.9-0.5 2.9-1.7z"/>
   <path class="frente" d="m344.5 285.4c4.9-2.7 8.8-8.2 11.3-13.2 12-24.7 0.1-53.6-10.5-76.3-11.4-24.5-22.2-50-21.4-77.6 0.6-20.2 9.5-54.3 36-51.9 12.5 1.1 22.3 12.2 21.7 24.8-0.4 9.8-10.8 22.6-21.2 14.8-4.4-3.3-5.3-12.1 1.6-13 4.1-0.6 6.9 4.1 10.9 2.7 6-2.1 3.3-10 0.3-13.3-3.8-4.2-10-6.1-15.6-5-11.9 2.4-17.6 16.9-20.2 27.4-3 12.1-2.7 24.8-0.7 37 4.2 25.5 17.3 48.1 25.4 72.4 3.9 11.7 6.9 24.1 6.3 36.5-0.3 6.9-1.8 13.8-4.5 20.2-2.3 5.4-5.9 10.1-8.4 15.4-2.3 2.6-4.5 4.2-6 5.2-3 1.9-4.5 2-5 2-2 0.1-4.8-0.6-5.3-2.3-0.4-1.8 1.6-4.4 5.3-5.8z"/>
  </g>
 </g>
 <g class="asas">
  <g class="traseira">
   <path class="borda" d="m315 345c-22.4-12.4-47.5-20.8-73.1-22.6-25.4-1.8-56.6-1.5-77.3 15.3-11.3 9.2-17.5 21-19.3 35.5-1.4 11-4.3 18.6-16.6 11.2-13.6-8.1-11.1-19.8-9.1-33.1 2.3-15.2-11.3-20.4-24.3-15-7.5 3.2-14.8 13.3-14.6 21.8 0.2 12 3.9-2.2 5.5-5.5 3.8-8.2 24.5-16.7 24.1-3.2-0.2 5.8-4.6 12.7-5.9 18.5-0.8 3.8-1.3 7.7-1.5 11.5-1.2 23.4 10.2 47.7 29.3 61.4 21.4 15.4 50.4 15.3 75.2 9.9 36.2-7.9 80-38.9 83.8-78.4 0.1-0.8 0.1-0.9 0.1-0.7 1.7-12.4 11-24.2 23.7-26.6zm-149.7 96.1c-12.7-2.1-27.9-6.5-36.3-17-4-5-6.5-13.2-1.1-18.2 4.3-3.9 11-2.9 15.4 0.2l13.2 7.4c-10.6-7.7-8.5-27.3 6.3-27.8 7-0.2 13.5 4 20 6.2 6.2 2.1 13.6 4.1 20.1 2.2-1.1 9.9 1 20 9 26.6 7.6 6.2 18.4 8.5 27.9 5.9-22.8 14.6-48.1 18.9-74.5 14.5zm122.4-87.7c-5.1 4.8-6.5 11.5-8.1 18-3.9 16.4-11.6 32-25.9 41.8-11 7.5-24 11.2-35.4 2.6-10.9-8.2-11-24.2-1.3-33.5-0.5 0.5-20.1 9.2 0 0-12.8 5.8-35.2 10-45.2-3.4-8.9-11.9-1.7-27 8.6-34.9 11.2-8.5 25.9-10.8 39.5-11.2 15-0.5 30 1.5 44.9 3.1 4.2 0.5 8.4 1 12.6 1.8 4.2 0.9 23.1 4.6 23.6 5.6 0.6 1-11.9 8.8-13.3 10.1z"/>
   <path class="interior" d="m301.1 343.3c-0.5-0.9-19.4-4.7-23.6-5.6-4.2-0.8-8.3-1.3-12.6-1.8-14.9-1.7-29.8-3.6-44.9-3.1-13.7 0.4-28.4 2.7-39.5 11.2-10.3 7.8-17.4 23-8.6 34.9 10 13.4 32.4 9.2 45.2 3.4-9.7 9.3-9.6 25.3 1.3 33.5 11.4 8.6 24.4 4.9 35.4-2.6 14.3-9.8 22-25.4 25.9-41.8 1.5-6.5 3-13.2 8.1-18 1.3-1.3 13.8-9.1 13.3-10.1zm-42.1 27.3c-2.1 8.5-1.3 22.8-8.4 28.4-7.1 5.7-15.4-2.8-14.6-11.5 1.5-15.1 18.9-32.5 33-31.5-4.6 5.3-8.3 7-10 14.6zm-15.4-13c-9.9 5.3-22.5 16.5-36.2 13.7-16.1-3.3-14.6-18.4-3.1-24.4 16.9-8.9 38.2-7.1 55.8-1.7 5.7 1.8 11.7 3.4 16.2 6.7-12.5-0.9-21.7-0.2-32.7 5.7zm-31.6 63c-8.1-6.6-10.1-16.6-9-26.6-6.5 1.8-13.9-0.1-20.1-2.2-6.5-2.2-13-6.4-20-6.2-14.9 0.5-16.9 20.1-6.3 27.8l-13.2-7.4c-4.5-3-11.2-4.1-15.4-0.2-5.5 5-3 13.2 1.1 18.2 8.4 10.5 23.6 14.9 36.3 17 26.4 4.3 51.7 0.1 74.5-14.5-9.6 2.6-20.3 0.4-27.9-5.9zm-42.8 0.5c-2-3.5-3.2-9.1 1.3-11.4 2.7-1.3 5 0.2 7.3 1.5 0.3-3.3-0.1-7.1 3.9-8.3 2.7-0.8 5.5 0.4 6.8 2.9 1.4 2.7 0.9 6 1.3 9 0.7 5.2 3.2 10.3 7.6 13.4 1.7 1.2 5.4 3.3 7.7 2.9-12 2.1-28.9 1.9-35.9-10zm47.9-38.8c-0.5 0.5-20.2 9.2 0 0z"/>
   <path class="detalhe" d="m243.6 357.6c-9.9 5.3-22.5 16.5-36.2 13.7-16.1-3.3-14.6-18.4-3.1-24.4 16.9-8.9 38.2-7.1 55.8-1.7 5.7 1.8 11.7 3.4 16.2 6.7-12.5-0.9-21.7-0.2-32.7 5.7zm-7.5 29.9c-0.9 8.7 7.5 17.2 14.6 11.5 7-5.6 6.2-19.9 8.4-28.4 1.7-7.6 5.4-9.3 10.1-14.6-14.2-1-31.6 16.4-33.1 31.5zm-38.8 40.7c-4.4-3.1-6.9-8.2-7.6-13.4-0.4-2.9 0.1-6.2-1.3-9-1.3-2.5-4.1-3.7-6.8-2.9-4 1.2-3.6 5-3.9 8.3-2.3-1.3-4.6-2.8-7.3-1.5-4.5 2.2-3.3 7.9-1.3 11.4 6.9 12 23.9 12.1 35.8 10-2.1 0.4-5.8-1.7-7.6-2.9z"/>
  </g>
  <g class="fundo">
   <path class="borda" d="m317.2 182.8c-5.4-12.4-11.5-24.7-14.9-37.8-3.5-13.4-4.4-27.3-4.6-41.1-0.1-7.2 0-14.5-1-21.6-0.8-5.7-2.8-11.5-2.4-17.3 0.2-2.6 2-10.2 5.9-10.3 3.4-0.1 3.5 6.7 4.7 9.1 5.5 10.7 17 0.9 13.6-8.4-3.2-8.6-13.3-15.2-22.1-10.8-10.3 5.1-16.5 17.7-24.5 25.5-13.5 13-16.7 14.3-30.2 27.5-12.1 11.9-32.2 31.6-38.7 62.1-6.3 29.3 3.1 53.6 6.5 61.5 7.5 17.3 18.1 27.9 27.5 37.5 20.1 20.3 30.4 20.8 47 37 9.3 9.1 21.5 24.2 30.7 48.8 11.1-16.1 15.3-43.1 17-71.3 1.8-31.3-2.1-61.6-14.5-90.4zm-93.6 32.2c-9.8-23.9-6.2-51.1 1.9-74.9 3.8-11.2 9-21 16.6-30.1 5.5-6.7 11.7-13 18.4-18.5-5.1 9.5-11 24.3-3.5 34-10.2-5.6-17.5 7.4-20.6 15.3-4.8 12.4-4.9 26.3-3.8 39.4 2 22.7 8.6 45.2 17.3 66.3-11.1-7.9-21.1-18.7-26.3-31.5zm98.1 90.9c-0.6-0.3-1.1-0.6-1.5-0.8-12.5-6.5-24-14.8-34-24.7-12.3-12.2-22.2-26.7-28.7-42.7-5.3-13.1-9.2-27.3-12-41.2-3.1-15.3-3.5-31.2-1.5-46.7 0.7-5.6 1.8-13.2 6.8-16.8 5.7-4.1 13.3 0.3 18 3.9-7.5-10.7-10.2-25.1-6.6-37.6 3.3-11.7 11.9-21.8 22.8-27.2 5.1 14.9 1 30 2.4 45.2 1.7 18.5 7.2 37 14.8 53.9 2.8 6.2 5.7 12.3 8.2 18.6 3.2 8.3 5.9 17 8.2 25.6 3.2 11.9 4.8 24.5 6 36.8 1.4 18-0.1 35.8-2.9 53.7z"/>
   <path class="interior" d="m324.4 252.2c-1.1-12.2-2.8-24.9-6-36.8-2.3-8.6-5.1-17.2-8.2-25.6-2.4-6.3-5.4-12.4-8.2-18.6-7.5-16.9-13.1-35.4-14.8-53.9-1.4-15.2 2.7-30.3-2.4-45.2-10.9 5.4-19.5 15.5-22.8 27.2-3.6 12.5-0.9 27 6.6 37.6-4.7-3.7-12.3-8.1-18-3.9-5 3.6-6 11.2-6.8 16.8-2 15.5-1.6 31.3 1.5 46.7 2.8 13.9 6.7 28 12 41.2 6.5 16 16.4 30.6 28.7 42.7 10 9.9 21.6 18.2 34 24.7 0.5 0.3 1 0.5 1.5 0.8 3-17.9 4.5-35.7 2.9-53.7zm-36.3-70.4c-12.4-8-24-18.7-21.6-34.1 0.6-1.7 1.7-3.1 3.2-3.9 1.5-0.9 3.3-1.2 5.1-1.1 1.9 0.1 3.8 0.8 5.5 2.1 2.8 1.9 4.4 4.5 4.8 7.9 1.8 12.7-1.1 20.2 7.7 31.4-1.3-0.6-3-1.3-4.7-2.3zm-55.4-1.6c2 22.7 8.6 45.2 17.3 66.3-11.2-7.9-21.2-18.7-26.4-31.5-9.8-23.9-6.2-51.1 1.9-74.9 3.8-11.2 9-21 16.6-30.1 5.5-6.7 11.7-13 18.4-18.5-5.1 9.5-11 24.3-3.5 34-10.2-5.6-17.5 7.4-20.6 15.3-4.8 12.4-4.9 26.4-3.7 39.4z"/>
   <path class="detalhe" d="m292.8 184.1c-8.8-11.2-5.9-18.7-7.7-31.4-0.3-3.4-2-6-4.8-7.9-1.7-1.2-3.6-1.9-5.5-2.1-1.9-0.1-3.7 0.2-5.1 1.1-1.5 0.9-2.6 2.2-3.2 3.9-2.4 15.3 9.2 26 21.6 34.1 1.7 1 3.4 1.7 4.7 2.3z"/>
  </g>
  <g class="frente">
   <path class="borda" d="m314.1 254.3c-6.7-21.7-17.7-42.7-32-60.4-5.9-7.2-12.5-13.9-18.7-20.9-12.3-13.8-24-28.1-35.7-42.4l0.1 0.1-0.1-0.1c-3.5-4.3-7-8.6-10.5-13-7.3-9.3-15.6-17.7-21.9-27.7-4.8-7.6-9.6-16.9-10.2-26-0.3-5.1 0.9-10.3 3.1-15 1-2.3 3.3-7.4 6.1-8.1 4.8-1.2 7.2 11.8 10.4 14.7 6.5 6.1 15.4-2 15.2-9.3-0.3-16.2-22.5-24.5-33.8-13.6-12.1 11.8-14.1 30-20 44.9-5.4 13.6-13.6 26.3-20.2 39.3-13.9 27.3-27.9 55.9-27.4 87.3 0.3 22.2 6.8 45 18.4 63.9 9.1 14.8 21.6 26.9 36.3 35.9 16.3 9.9 33.8 14.8 51.9 20 15.5 4.5 31.4 6.8 47.1 10.4 8.2 1.9 16.3 3.8 24.5 5.8 5 1.3 10.7 3.7 15.9 4.1 1.3 0.1 1.4 0.6 2.2 0 2-1.5 2.8-9.3 3.3-11.6 2.3-9.7 3.5-19.7 3.6-29.7 0-16.4-2.7-32.9-7.6-48.6zm-85.7-122.7c-0.1-0.1-0.3-0.3-0.5-0.7 0.2 0.3 0.4 0.6 0.5 0.7zm-5.3-6.5c-0.5-0.6-0.4-0.5 0 0zm4.4 5.3c-1.1-1.4-2-2.4-2.7-3.3 0.9 1.2 1.9 2.4 2.7 3.3zm40.4 193.4c-35.8-10.5-41.9-7.9-61.2-15.4-11.2-4.4-41.9-16.1-61.5-47.3-20.8-33-16.6-67.2-15.4-75.8 3.3-23.9 14.1-43.4 21.7-57.2 5.4-9.7 10.7-17.5 14.6-22.9-1.9 11.4-1.5 20.8-0.8 27.2 0.5 4 1.1 9.5 3.5 16.2 0 0 3 8.6 8.8 16.5 21 28.6 54.5 43.9 77.9 66.1 9.7 9.2 17.5 19.5 23.9 30.2 11.6 19.3 15.2 37.4 22.8 60.5 2.4 7.4 6.5 15.8 6.5 15.8-9.2-3.5-23.2-8.7-40.8-13.9zm47 2.5c-6.5-13.2-11.9-33.1-19.1-49.6-3.2-7.3-6.4-13.9-10.7-20.8-5.7-9.1-13.4-19.2-26.4-31.5-22-20.7-32.3-22.5-61-47.8-5.3-4.7-13-11.7-18.5-23.3-4.5-9.4-5.6-17.5-6.3-23.7-1.2-9.4-1.9-25.8 4.3-46.2 4.6 8.9 11.6 21.4 21.7 35.5 2 2.7 8.1 11.2 22.5 27.6 24.1 27.5 36.7 37.7 55.4 61.4 3.9 5 9.7 12.7 15.5 23.3 3.6 6.6 6.6 13.4 9.8 22 4.3 11.4 6.2 19.9 8.2 31.5 2.1 12.7 4.8 27.3 4.6 41.6z"/>
   <path class="interior" d="m267.4 300.6c-6-1-11.8-2.8-17.8-3.8-5.6-0.8-11.7-0.4-17.3-2-10-2.9-16.6-8.5-17.4-12.3-1.6-7.5 8.4-7.4 14-6 11.6 2.8 31.6 16.1 38.5 24.1zm-44.1-75.4c-7.1-4.5-30.4-12.9-30.7 1-0.3 11.6 13.6 34.2 30.2 40.3 21.7 8 43.1 20.1 56.2 35.6-0.4-4.4-8.6-15.6-11.2-19.6-9.1-13.8-28.4-46.8-44.5-57.3zm86.9 59.7c-2-11.5-3.9-20-8.2-31.5-3.2-8.5-6.2-15.4-9.8-22-5.8-10.7-11.6-18.3-15.5-23.3-18.7-23.7-31.3-33.9-55.4-61.4-14.4-16.4-20.5-24.9-22.5-27.6-10.1-14.1-17.1-26.6-21.7-35.5-6.2 20.4-5.5 36.8-4.3 46.2 0.8 6.2 1.8 14.3 6.3 23.7 5.5 11.6 13.2 18.6 18.5 23.3 28.7 25.3 39 27 61 47.8 13 12.3 20.7 22.3 26.4 31.5 4.3 6.9 7.5 13.6 10.7 20.8 7.2 16.5 12.6 36.5 19.1 49.6 0.3-14.5-2.4-29.1-4.6-41.6zm-8 37c2.4 7.4 6.5 15.8 6.5 15.8-9.1-3.6-23.2-8.7-40.7-13.9-35.8-10.5-41.9-7.9-61.2-15.4-11.2-4.4-41.9-16.1-61.5-47.3-20.8-33-16.6-67.2-15.4-75.8 3.3-23.9 14.1-43.4 21.7-57.2 5.4-9.7 10.7-17.5 14.6-22.9-1.9 11.4-1.5 20.8-0.8 27.2 0.5 4 1.1 9.5 3.5 16.2 0 0 3 8.6 8.8 16.5 21 28.6 54.5 43.9 77.9 66.1 9.7 9.2 17.5 19.5 23.9 30.2 11.5 19.3 15.1 37.5 22.7 60.5zm-129.4-87.7c-6.1-8.4-11.3-18.1-9.2-27.6 1.5-6.5 7.5-11 6.2-18.3-2.2-13.2-20.9-17-28.4-8-11.5 13.7 0.9 31.9 14.1 43.5 3.7 3.3 12.1 11 17.3 10.4zm126.1 93.6c-5.3-11.1-12.4-27.8-16.9-37-13-26.4-27.3-57-57.6-76.4-12.5-8-41.4-16.5-46 1.4-2.4 9.3 3.8 17.5 8.7 25.7-4.3 0-8.7-0.4-12.8 0.8-25.6 7.2-7.6 32.4 8.3 42.8 23.6 15.5 50.7 16.8 75.6 23 13.7 3.3 37.3 12.5 40.7 19.7z"/>
   <path class="detalhe" d="m282 290.8c-13-26.4-27.3-57-57.6-76.4-12.5-8-41.4-16.5-46 1.4-2.4 9.3 3.8 17.5 8.7 25.7-4.3 0-8.7-0.4-12.8 0.8-25.6 7.2-7.6 32.4 8.3 42.8 23.6 15.5 50.7 16.8 75.6 23 13.6 3.4 37.2 12.5 40.7 19.8-5.3-11.2-12.4-27.9-16.9-37.1zm-32.4 6c-5.6-0.8-11.7-0.4-17.3-2-10-2.9-16.6-8.5-17.4-12.3-1.6-7.5 8.4-7.4 14-6 11.6 2.9 31.6 16.1 38.5 24.2-6-1.1-11.7-2.9-17.8-3.9zm29.4 5.4c-13-15.5-34.4-27.6-56.2-35.6-16.6-6.1-30.5-28.7-30.2-40.3 0.3-14 23.7-5.5 30.7-1 16.2 10.5 35.5 43.5 44.5 57.4 2.6 3.9 10.8 15.1 11.2 19.5zm-123.5-78.4c-13.1-11.7-25.6-29.8-14.1-43.5 7.6-9 26.2-5.2 28.4 8 1.2 7.3-4.8 11.8-6.2 18.3-2.2 9.5 3 19.2 9.2 27.6-5.2 0.6-13.6-7.1-17.3-10.4z"/>
  </g>
 </g>
</svg>
