<svg class="logotipo" role="img" aria-label="Logotipo estilizado da Red Butterfly" xmlns="http://www.w3.org/2000/svg" xmlns:xlink="http://www.w3.org/1999/xlink" version="1.1" x="0" y="0" viewBox="0 0 79.4 46.6" xml:space="preserve" fill="#000">
  <title>Red Butterfly</title>
  <desc>Logotipo estilizado da Red Butterfly</desc>

  <g class="red">
      <path d="M42.7 15.1c0.9-0.9 1.8-1.6 2.7-2.2c0.9-0.6 1.7-1 2.2-1.1c0.5-0.2 1.1-0.2 1.6-0.2c0.5 0 1 0.2 1.5 0.6 C53.4 5.2 56 1.8 58.4 1.8c0.8 0 1.4 0.3 1.7 0.8c0.1 0.3 0.2 0.5 0.2 0.7c0 0.5-0.2 1.2-0.6 2.1c-0.4 0.8-1.1 1.8-1.9 2.8 c-0.9 1-2.1 2.2-3.8 3.7s-2.5 2.3-2.7 2.5c-0.6 1.6-1.1 3.2-1.5 4.7c-0.4 1.5-0.5 2.6-0.5 3.4c0 0.7 0.1 1.3 0.4 1.8 c0.1 0.3 0.3 0.5 0.5 0.5c0.2 0.1 0.4 0 0.6-0.1c0.2-0.1 0.3-0.2 0.4-0.3c0.1-0.1 0.2-0.2 0.3-0.2c0.1-0.1 0.2-0.1 0.3 0 s0 0.2 0 0.4c-0.2 0.2-0.3 0.4-0.4 0.6c-0.3 0.2-0.7 0.4-1.1 0.4s-0.7 0-0.8 0c-0.9-0.2-1.4-0.9-1.4-2.3c0-1.3 0.2-2.5 0.5-3.6 c0.4-1.5 0.8-2.8 1.2-3.8c-3.1 4-5.3 6.1-6.6 6.1c-0.3 0-0.6-0.1-1-0.3c-0.4-0.2-0.7-0.5-0.9-0.9c-0.3-0.4-0.4-0.8-0.4-1.2 s0.1-0.8 0.3-1.2C41.2 16.9 41.9 16 42.7 15.1z M50.5 12.6c-0.2-0.1-0.6-0.2-1.2-0.2s-1.3 0.3-2.3 0.8c-0.9 0.5-1.8 1.2-2.6 2 c-0.7 0.7-1.3 1.5-1.8 2.4c-0.5 0.9-0.8 1.6-0.8 2c0 0.8 0.2 1.2 0.6 1.2s1-0.4 1.9-1.1c2.2-2 4.1-4 5.8-6L50.5 12.6z M59.1 4.4 c0.3-0.5 0.4-1 0.4-1.3c0-0.4-0.1-0.5-0.4-0.5c-0.3 0-0.7 0.2-1.1 0.6C55.8 5 53.8 8 52.1 12.3c1.3-0.9 2.6-2.1 4-3.7 C57.4 7.1 58.4 5.7 59.1 4.4z"/>
      <path d="M38.9 11.6c1.1 0 1.6 0.6 1.6 1.7c0 0.6-0.1 1.1-0.4 1.4c-0.5 0.8-1.3 1.5-2.4 2.1c-1.1 0.6-2 0.9-2.8 1 c-0.3 0-0.4-0.1-0.4-0.3c0-0.1 0-0.1 0.1-0.2c0.1 0 0.1 0 0.2 0c0.4 0 1-0.3 1.7-0.7c1.3-0.8 2.3-1.6 2.9-2.4 c0.3-0.4 0.4-0.8 0.4-1.1c0-0.4-0.2-0.5-0.5-0.5c-0.3 0-0.6 0.1-1 0.4c-0.9 0.5-1.9 1.3-2.9 2.5c-1 1.2-1.7 2.3-2 3.5 c-0.1 0.3-0.1 0.7-0.1 1c0 0.3 0.1 0.7 0.4 1c0.3 0.3 0.6 0.5 1.2 0.5c0.6 0 1.3-0.2 2-0.5c2.2-1 3.9-2.5 5.1-4.5 c0.1-0.2 0.2-0.2 0.3-0.1c0.1 0 0.1 0.1 0.1 0.2c0 0.1 0 0.1-0.1 0.2c-0.6 1.1-1.3 2.1-2.2 2.9c-1.7 1.7-3.4 2.5-5.1 2.5 c-1.4 0-2.4-0.5-2.9-1.4c-0.2-0.4-0.3-0.8-0.3-1.3c0-0.5 0.1-1.1 0.4-1.9c0.5-1.2 1.5-2.5 3.1-3.8C36.7 12.2 38 11.6 38.9 11.6z"/>
      <path d="M17.1 6.8c0-0.3-0.1-0.5-0.1-0.5c0.3-1.6 1.7-3.2 4.3-4.7c2-1.1 4.5-1.6 7.2-1.6c1.7 0 3.4 0.3 5.1 0.8 c1.1 0.4 2 1.1 2.6 1.9c0.6 0.8 0.9 1.6 0.9 2.4c0 1.3-0.4 2.4-1.3 3.3c-0.9 1-1.9 1.7-3 2.2c-2.5 1.2-5.3 1.9-8.5 2 c0.3 0.3 0.6 0.9 1.2 1.8c0.6 0.9 0.9 1.6 1.1 1.9c2.3 4.7 3.1 7.3 5.7 9.1c0.3 0.2 0.6 0.4 0.7 0.4l1.1 0.4c1 0.3 2.1 0.5 3.3 0.5 c1.3-0.1 2.4-0.5 3.1-1.2c0.3-0.3 0.6-0.6 0.8-1.1c0.2-0.5 0.4-0.7 0.7-0.8c0.3 0 0.4 0.3 0.2 0.8c-0.2 0.5-0.5 1-1.1 1.5 c-0.5 0.5-1.2 0.9-2.2 1.3c-0.9 0.4-2.3 0.5-3.9 0.2c-1-0.1-1.7-0.3-1.9-0.4c-0.4-0.1-1-0.3-1.6-0.8c-0.7-0.5-1.2-1.1-1.5-1.5 c-1.2-1.6-2-3.4-3.1-5.7c-1.1-2.3-1.6-3.2-1.8-3.7c-0.6-1-1.1-1.9-1.4-2.5l-0.2 0c-1.5 3-2.2 4.9-2.2 5.5c0 0.3 0.1 0.5 0.4 0.5 c0.2 0 0.6-0.3 1-0.9c0.4-0.6 0.7-0.9 0.8-0.8c0.1 0.1 0 0.4-0.4 0.8c0 0-0.1 0.2-0.2 0.3c-0.1 0.2-0.2 0.3-0.2 0.4 c-0.1 0.1-0.2 0.2-0.3 0.4c-0.1 0.2-0.2 0.3-0.3 0.4c-0.1 0.1-0.2 0.2-0.3 0.3c-0.2 0.2-0.4 0.3-0.6 0.3c-0.2 0-0.4 0-0.7-0.1 c-0.3-0.1-0.5-0.2-0.5-0.4c0-1 0.8-3.3 2.4-6.8c-0.6-0.1-1-0.3-1-0.8c0-0.1 0-0.2 0-0.3c0.1-0.4 0.4-0.6 0.7-0.6 c0.4 0 0.6 0.1 0.9 0.3c0.2-0.3 0.3-0.7 0.6-1.2c0.8-1.5 1.1-2.5 1.1-2.9c0-0.1 0-0.2 0-0.3c0.1-0.6 0.5-1.4 1.4-2.4 c0.9-1 1.7-1.5 2.4-1.5c0.2 0 0.5 0.1 0.9 0.3C29.7 3.7 30 3.9 30 4.3c0 0.2 0 0.2 0 0.3c0 0-0.1 0-0.2 0c-0.1 0-0.2-0.1-0.2-0.1 c-1.4 0-3.3 2.5-5.8 7.4c0.2 0.1 0.5 0.2 0.7 0.2c0.2 0 0.4 0 0.6 0c2-0.2 3.9-0.8 5.8-1.6c1.9-0.8 3.4-1.8 4.4-3 c0.7-0.7 1-1.5 1-2.3c0-2.4-2.2-3.7-6.7-3.7c-2.6 0-5 0.4-7.3 1.3c-1.2 0.5-2.2 1.1-3.1 1.9c-0.8 0.8-1.3 1.7-1.5 2.7 c0 0.1 0 0.3 0 0.4c0 0.2 0.1 0.4 0.2 0.6c0.1 0.3 0.3 0.4 0.5 0.6c0.2 0.1 0.4 0.3 0.7 0.5c0.3 0.2 0.5 0.3 0.6 0.4 c0.1 0.1 0.1 0.2 0.1 0.3c-0.1 0.1-0.2 0.1-0.4 0.1c-0.6-0.1-1.2-0.4-1.7-1C17.3 8.6 17 8 17 7.4C17 7.2 17.1 7 17.1 6.8z"/>
  </g>
  <g class="butterfly">
      <path d="M67.5 46.6c-0.1 0-0.3 0-0.5-0.1c-0.9-0.2-1.3-0.7-1.3-1.5c0-0.8 0.4-1.7 1.3-2.8c0.9-1.1 2.7-2.8 5.6-4.8 c1.6-3.6 2.6-6.1 3-7.5c-0.2 0.3-0.6 0.8-1.2 1.7c-0.6 0.9-1.1 1.6-1.6 2.2c-0.5 0.6-1 1.2-1.6 1.7c-0.6 0.5-1.2 0.8-1.8 0.8 s-0.9-0.1-1.2-0.4c-0.3-0.3-0.5-0.6-0.5-0.9c0-0.3-0.1-0.6-0.1-0.8c0-0.7 0.2-1.4 0.5-2.1c0.5-1.1 1.2-2.1 2-2.9 c0.3-0.3 0.6-0.5 0.8-0.5s0.5 0.1 0.7 0.3c0.2 0.3 0.3 0.5 0.2 0.7c-0.6 0.4-1.4 1.2-2.2 2.4c-0.4 0.6-0.7 1.4-0.9 2.4 c0 0.1 0 0.3 0 0.5c0 0.2 0.1 0.4 0.2 0.5c0.1 0.1 0.3 0.2 0.4 0.2c0.5 0 1.1-0.3 1.6-0.9c0.6-0.6 1.1-1.3 1.6-1.9 c0.5-0.7 1.1-1.5 1.8-2.5c0.7-1 1.1-1.6 1.3-1.9c0.2-0.3 0.4-0.4 0.6-0.4c0.3 0 0.5 0.1 0.8 0.3c0.3 0.2 0.4 0.3 0.4 0.4 c0 0.1-0.5 1.2-1.3 3.2c-0.8 2-1.4 3.5-1.8 4.4c0.4-0.2 1.1-0.8 2-1.7c1-0.9 1.8-1.8 2.4-2.8c0.2-0.2 0.3-0.2 0.3-0.1 c0 0 0 0.1 0 0.2c0 0.1-0.1 0.2-0.2 0.3c-0.5 0.8-1.3 1.7-2.5 2.9c-1.1 1.2-2 1.9-2.7 2.4c-1.4 3.3-2.4 5.3-2.9 6.2 C69.9 45.6 68.7 46.6 67.5 46.6z M72.1 38.4c-2 1.7-3.4 3-4.3 4c-0.9 1-1.3 1.8-1.3 2.5s0.2 1.1 0.7 1.1c0.3 0 0.7-0.2 1.2-0.6 c0.4-0.4 0.9-0.9 1.3-1.5c0.4-0.6 0.7-1.2 0.9-1.6c0.2-0.5 0.5-1.1 0.9-2C71.7 39.3 71.9 38.7 72.1 38.4z"/>
      <path d="M63.5 32.3c-0.2 0.6-0.3 1.1-0.3 1.3c0 0.2 0 0.5 0 0.9s0.1 0.7 0.3 1c0.3 0.5 0.8 0.5 1.4 0.1 c0.5-0.3 1.1-0.8 1.9-1.6c0.8-0.8 1.4-1.5 1.8-2.2c0-0.1 0.1-0.1 0.2-0.1c0.2 0 0.2 0.1 0.1 0.4c-0.3 0.5-0.7 1.1-1.4 1.9 c-0.7 0.8-1.3 1.4-1.8 1.9c-0.6 0.5-1.1 0.7-1.7 0.7c-1.3 0-1.9-0.7-1.9-2.1c0-0.1 0-0.1 0-0.2c0.1-1.3 0.7-3.3 1.8-5.9 c1.1-2.6 2.1-4.6 3-6l0.8-1.1c0.2-0.2 0.5-0.5 0.8-0.9c0.7-0.7 1.4-1.1 2.1-1.1s1.2 0.2 1.4 0.7c0.1 0.2 0.1 0.4 0.1 0.7 s-0.1 0.8-0.4 1.3C69.9 25.5 67.2 28.9 63.5 32.3z M71 21.6c0.2-0.4 0.3-0.7 0.3-1c0-0.4-0.1-0.6-0.4-0.6c-0.2 0-0.5 0.2-0.9 0.4 c-1.3 1.2-2.6 3-3.9 5.5c-1 2-1.7 3.7-2.2 5.2c1.2-0.9 2.4-2.3 3.9-4.3C69.2 24.9 70.2 23.2 71 21.6z"/>
      <path d="M54 45c0 0.1-0.1 0.1-0.1 0.2c0 0-0.2 0.2-0.5 0.3s-0.6 0.3-0.8 0.3c-0.2 0-0.4-0.1-0.4-0.2c0-0.1 0-0.1 0.1-0.2 c0.3-0.6 1.8-4.9 4.6-12.9c-0.5 0.1-0.9 0.1-1.2 0.1s-0.4-0.1-0.6-0.2c-0.1-0.1-0.2-0.3-0.2-0.5c0-0.2 0.2-0.4 0.6-0.5 c0.4-0.2 0.7-0.2 0.9-0.2c0.2 0 0.4 0.1 0.5 0.2c0.1 0.1 0.2 0.2 0.3 0.2h0.1l0.7-2.1c0.3-0.9 0.8-2.2 1.4-3.7 c0.6-1.5 1.2-2.7 1.7-3.6c1.1-1.9 2.2-2.8 3.4-2.8l0.6 0.1l0.5 0.2c0.5 0.3 0.7 0.8 0.7 1.3c0 0.6-0.1 1.1-0.4 1.8 c-0.5 1.1-1.4 2.5-2.8 4.2c-1.4 1.7-2.7 3.2-4 4.3c1.4-0.1 2.3-0.2 2.6-0.2c0.4 0 0.6 0.1 0.6 0.2c0 0.1-0.2 0.2-0.5 0.3 c-0.3 0.1-1.6 0.3-3.9 0.7c-2 5.6-3 8.9-3 9.7c0 0.4-0.1 0.7-0.1 0.9c-0.1 0.2-0.1 0.4-0.2 0.6c-0.1 0.2-0.1 0.4-0.2 0.5 c0 0.1-0.1 0.3-0.1 0.4c-0.1 0.2-0.1 0.3-0.1 0.3C54.1 44.9 54 44.9 54 45z M65 22.4c0.3-0.5 0.4-1.1 0.4-1.5 c0-0.5-0.2-0.7-0.5-0.7c-0.6 0-1.5 0.9-2.7 2.7C61.6 24 61 25 60.5 26.1c-1.1 2.2-1.8 3.9-2.1 4.9l-0.2 0.4c1.2-1 2.4-2.4 3.7-4.1 C63.3 25.5 64.3 23.9 65 22.4z"/>
      <path d="M50.6 36.6c-0.9 0-1.3-0.6-1.3-1.7c0-1.1 0.7-2.6 2.2-4.2c0.1-0.1 0.2-0.2 0.3-0.3l0.2-0.3c0.2-0.4 0.3-0.6 0.3-0.7 l-0.1-0.3c-0.1-0.2-0.3-0.4-0.8-0.5c-0.5-0.1-0.9-0.2-1.2-0.2c-1.5 2.4-2.4 3.7-2.6 4.1c-0.2 0.3-0.4 0.5-0.5 0.4 C47 32.9 47 32.9 47 32.8c0-0.1 0.1-0.2 0.2-0.3c0.9-1.2 1.7-2.6 2.3-4c-0.2 0-0.4-0.1-0.5-0.2c-0.1-0.1-0.1-0.3 0-0.6 c0.1-0.3 0.3-0.7 0.8-1.2c0.4-0.5 0.8-0.8 1.1-1c0.3-0.2 0.5-0.3 0.6-0.3c0.1 0 0.2-0.1 0.3-0.1c0.2 0 0.1 0.3-0.2 1l-1 1.7 c0.8 0.1 1.4 0.1 1.9 0.1l0.9 0c0.3 0 0.5 0 0.6 0.1c0.1 0.1 0.2 0.2 0.1 0.4c-0.1 0.4-0.4 0.8-0.9 1.4c-1 1.3-1.8 2.7-2.3 4.2 c-0.1 0.4-0.2 0.7-0.2 0.9c0 0.5 0.2 0.8 0.5 0.8c0.1 0 0.3-0.1 0.7-0.3c0.3-0.2 0.9-0.7 1.6-1.5c0.8-0.8 1.4-1.5 1.9-2.3 c0.1-0.1 0.1-0.1 0.2-0.1c0.1 0 0.1 0.1 0.1 0.1c0 0 0 0.1-0.1 0.2c-0.3 0.5-0.7 1.1-1.4 1.9c-0.7 0.8-1.3 1.4-1.9 1.9 C52 36.4 51.3 36.6 50.6 36.6z"/>
      <path d="M45.1 27.8c0.9 0 1.4 0.5 1.4 1.5c0 0.5-0.1 0.9-0.4 1.2c-0.4 0.7-1.1 1.3-2 1.8c-0.9 0.5-1.7 0.8-2.4 0.9 c-0.2 0-0.4-0.1-0.4-0.2c0-0.1 0-0.1 0.1-0.1s0.1 0 0.1 0c0.4 0 0.9-0.2 1.5-0.6c1.1-0.7 1.9-1.4 2.5-2.1c0.2-0.3 0.3-0.7 0.3-1 c0-0.3-0.1-0.5-0.4-0.5c-0.2 0-0.5 0.1-0.9 0.3c-0.8 0.4-1.6 1.1-2.5 2.1c-0.9 1-1.4 2-1.7 3c-0.1 0.3-0.1 0.6-0.1 0.9 c0 0.3 0.1 0.6 0.3 0.8c0.2 0.3 0.6 0.4 1 0.4c0.5 0 1.1-0.2 1.7-0.4c1.9-0.9 3.3-2.2 4.4-3.9c0.1-0.2 0.2-0.2 0.3-0.1 c0.1 0 0.1 0.1 0.1 0.1c0 0.1 0 0.1-0.1 0.2c-0.5 0.9-1.1 1.8-1.9 2.5c-1.5 1.4-2.9 2.1-4.3 2.1c-1.2 0-2-0.4-2.5-1.2 c-0.2-0.3-0.3-0.7-0.3-1.1c0-0.4 0.1-1 0.3-1.6c0.4-1.1 1.3-2.2 2.7-3.3C43.2 28.3 44.3 27.8 45.1 27.8z"/>
      <path d="M36.7 29.4c0 0-0.4 0.7-0.4 0.8c-1 2.1-1.5 3.5-1.5 4.1c0 0.2 0 0.4 0 0.6c0 0.3 0.1 0.5 0.2 0.6 c0.2 0.3 0.6 0.3 1 0.1c0.4-0.3 1-0.8 1.8-1.6s1.4-1.6 1.9-2.3c0.1-0.1 0.2-0.1 0.3-0.1c0.3 0.1-0.2 0.9-1.3 2.2 c-1.1 1.3-2 2.1-2.7 2.4c-0.4 0.2-0.8 0.3-1.1 0.3c-0.7 0-1.1-0.4-1.3-1.1c0-0.1-0.1-0.3-0.1-0.5c0-0.7 0.3-1.6 0.8-3 c-0.1 0.2-0.4 0.7-1 1.4c-0.2 0.2-0.3 0.2-0.4 0c0 0 0-0.1 0-0.2c0-0.1 0-0.1 0.1-0.2c0.8-1.1 1.5-2.1 1.9-2.9c0 0 0.6-1.2 0.6-1.2 l0.5-1.1c0 0 1.3-2.6 1.3-2.6c0.1-0.3 0.3-0.6 0.4-0.9c0.1-0.2 0.2-0.4 0.4-0.6c0.4-0.2 0.9-0.2 1.2 0.2c0.1 0.1 0.1 0.2 0.1 0.4 c0 0.2-0.1 0.4-0.2 0.6c-0.1 0.2-0.2 0.4-0.4 0.5c-0.1 0.1-0.2 0.2-0.3 0.3l-1.2 2.4L36.7 29.4z"/>
      <path d="M31.4 28.8c0 0-0.2 0.4-0.3 0.6c-0.3 0.4-0.4 0.7-0.4 0.8c-1 2.1-1.5 3.5-1.5 4.1c0 0.2 0 0.4 0 0.6 c0 0.3 0.1 0.5 0.2 0.6c0.2 0.3 0.6 0.3 1 0.1c0.4-0.3 1-0.8 1.8-1.6s1.4-1.6 1.9-2.3c0.1-0.1 0.2-0.1 0.3-0.1 c0.3 0.1-0.2 0.9-1.3 2.2c-1.1 1.3-2 2.1-2.7 2.4c-0.4 0.2-0.8 0.3-1.1 0.3c-0.7 0-1.1-0.4-1.3-1.1c0-0.1-0.1-0.3-0.1-0.5 c0-0.7 0.3-1.6 0.8-3c-0.1 0.2-0.4 0.7-1 1.4c-0.2 0.2-0.3 0.2-0.4 0c0 0 0-0.1 0-0.2c0-0.1 0-0.1 0.1-0.2c0.8-1.1 1.5-2.1 1.9-2.9 c0 0 0.6-1.2 0.6-1.2l0.5-1.1l1.3-2.6c0.1-0.1 0.1-0.3 0.2-0.5c0.1-0.2 0.1-0.3 0.2-0.4c0-0.1 0.1-0.2 0.1-0.3 c0.1-0.1 0.1-0.2 0.1-0.2c0 0 0.1-0.1 0.1-0.1c0.1-0.1 0.3-0.2 0.6-0.2c0.3 0 0.5 0.1 0.7 0.3c0.1 0.1 0.1 0.2 0.1 0.4 c0 0.2-0.1 0.4-0.2 0.6c-0.1 0.2-0.2 0.4-0.4 0.5c-0.1 0.1-0.2 0.2-0.3 0.3l-1.2 2.4L31.4 28.8z"/>
      <path d="M27.4 33.9c-0.7 0.8-1.2 1.4-1.8 1.8c-0.7 0.5-1.4 0.8-2.2 0.8c-0.2 0-0.3-0.1-0.6-0.2c-0.2-0.2-0.4-0.4-0.5-0.7 c-0.1-0.3-0.1-0.6-0.1-0.9c0-1 0.2-1.9 0.5-2.9c-0.1 0-0.3 0.4-0.7 1.2c-0.4 0.8-0.9 1.5-1.5 2.1c-0.6 0.7-1.2 1-1.8 1 c-0.3 0-0.6-0.1-1-0.3c-0.7-0.3-1-1-1-1.8c0-1.1 0.3-2.2 1-3.4c0.7-1.2 1.1-1.8 1.3-1.9c0.3-0.1 0.5-0.1 0.7-0.1 c0.2 0 0.5 0.1 0.7 0.2c0.2 0.1 0.2 0.3-0.1 0.5c-1.2 1.2-2 2.5-2.5 3.9c-0.2 0.6-0.3 1-0.3 1.4s0.1 0.6 0.3 0.7 c0.2 0.1 0.3 0.2 0.5 0.2c0.4 0 0.9-0.3 1.6-0.9c0.7-0.6 1.7-1.9 2.9-3.9c0.2-0.3 0.5-0.8 0.9-1.6c0.4-0.8 0.7-1.3 0.8-1.4 c0.3 0 0.6 0.1 0.9 0.2c0.4 0.1 0.5 0.3 0.4 0.5c-0.8 1.5-1.4 2.6-1.7 3.3c-0.3 0.7-0.5 1.5-0.7 2.5c0 0.2 0 0.4 0 0.6 c0 0.3 0.1 0.5 0.2 0.6c0.3 0.3 0.6 0.3 1 0c0.4-0.3 1-0.8 1.8-1.6c0.8-0.8 1.4-1.5 1.9-2.3c0.1-0.1 0.1-0.1 0.2-0.1 c0.1 0 0.1 0.1 0.1 0.1c0 0 0 0.1 0 0.2C28.5 32.5 28.1 33.1 27.4 33.9z"/>
      <path d="M0.1 26.4L0 26c0.1-0.8 0.5-1.6 1.2-2.3C2 22.9 2.9 22.2 4 21.5c1.1-0.7 2.9-1.3 5.4-1.7c1.4-0.2 2.6-0.4 3.5-0.4 c0.9 0 1.8 0.1 2.5 0.3c0.7 0.2 1.3 0.5 1.8 1.1c0.5 0.5 0.7 1.1 0.7 1.9c0 0.7-0.3 1.4-0.8 2c-0.5 0.6-1.2 1.1-2 1.5 c-1.6 0.7-3.1 1-4.6 1.1c0.7 0.5 1.3 0.9 1.8 1.3c0.5 0.4 1 0.8 1.5 1.4c0.5 0.6 0.9 1.1 1 1.5c0.2 0.4 0.2 0.8 0.2 1.1 c0 1.1-0.4 2.2-1.1 3.2c-0.5 0.7-1.2 1.2-2.1 1.7C11 37.8 10 38 9 38c-2.1 0-3.3-0.8-3.5-2.5c0 0-0.1-0.1-0.1-0.2 C4.8 36.4 4.3 37 3.9 37c-0.1 0-0.3 0-0.6-0.1c-0.3-0.1-0.4-0.1-0.4-0.2c0-0.1 0-0.2 0-0.5s0.2-0.8 0.5-1.8 c0.3-0.9 0.7-1.8 1.1-2.7C5.2 30 6 28.4 6.8 26.8C6.9 26.5 7 26.3 7 26.1c0-0.2 0-0.3 0-0.4c0.1-0.5 0.5-1.2 1.2-2.1 c0.7-0.8 1.4-1.3 2-1.3c0.2 0 0.5 0.1 0.8 0.3c0.3 0.2 0.5 0.4 0.6 0.7c0 0.1 0 0.2 0 0.2c0 0-0.1 0-0.1 0c-0.1 0-0.1-0.1-0.2-0.1 c-0.5 0-1.2 0.4-1.9 1.3c-0.7 0.9-1.5 2-2.1 3.3c-1.4 2.6-2.4 4.8-3.1 6.4C4.1 34.9 4 35.2 4 35.4c0 0.3 0.1 0.4 0.3 0.4 s0.5-0.3 0.9-0.8c0.4-0.5 0.6-0.8 0.8-0.8c0.2 0 0.3 0.1 0.4 0.2c0.1 0.1 0.2 0.2 0.2 0.3c0 0.1 0.1 0.2 0.1 0.4 c0 0.2 0 0.3 0.1 0.4c0.3 1.3 1.1 2 2.5 2c0 0 0.1 0 0.1 0c1.2 0 2.1-0.3 3-0.9c0.9-0.7 1.4-1.5 1.4-2.5c0-1-0.4-2-1.3-3.2 c-0.3-0.3-0.7-0.8-1.2-1.3c-1.1-1.1-1.7-1.7-1.7-2c0-0.3 0.1-0.5 0.3-0.7c0.3-0.2 0.5-0.3 0.7-0.3c0.8 0 1.9-0.3 3.4-1 c2.1-1 3.2-2 3.4-3.2c0-0.1 0-0.1 0-0.2c0-0.3-0.1-0.7-0.4-1c-0.5-0.5-1.4-0.8-2.9-0.8c-2 0-4.3 0.4-6.9 1.2 c-1.6 0.5-3 1.2-4.2 2.1c-1.3 1-2 2-2 3.2c0 0.2 0.1 0.5 0.2 0.7c0.1 0.2 0.3 0.4 0.5 0.5s0.4 0.2 0.7 0.3c0.3 0.1 0.5 0.2 0.6 0.3 c0.1 0.1 0.2 0.1 0.1 0.2c0 0.1-0.2 0.1-0.4 0.1c-0.6 0-1.1-0.3-1.7-0.8c-0.6-0.5-0.8-1-0.8-1.7C0 26.6 0 26.5 0.1 26.4z"/>
  </g>
</svg>