<?xml version="1.0" encoding="utf-8"?>
<!-- Generator: Adobe Illustrator 18.1.1, SVG Export Plug-In . SVG Version: 6.00 Build 0)  -->
<svg version="1.1" id="Camada_1" xmlns="http://www.w3.org/2000/svg" xmlns:xlink="http://www.w3.org/1999/xlink" x="0px" y="0px"
	 viewBox="122.6 -65.1 280 280" enable-background="new 122.6 -65.1 280 280" xml:space="preserve">
<rect x="122.6" y="-65.1" fill="none" width="280" height="280"/>
<g>
	<g>
		
			<image overflow="visible" opacity="0.25" enable-background="new    " width="666" height="770" xlink:href="35572CAB.png"  transform="matrix(0.363 0 0 0.363 141.6937 -64.8373)">
		</image>
		<g>
			<path fill="#212121" d="M209.7,202.7c-12.4,0-22.7-3.5-30.8-10.4c-10.3-9.1-14.6-22.1-15-30.4c-0.2-5.3,0.4-9.3,0.4-9.7
				c0.6-3.9,1.8-7.1,2.8-9.7c1-3,1.8-5.3,1.2-6.3c-0.6-1-2.4-1.6-4.7-1.6c-1.4,0-3.2,0.2-4.5,0.6c-5.1,1.6-6.5,7.3-6.9,10.6
				c0,0.6-0.4,1.2-1,1.2l0,0c-0.2,0-0.4,0-0.6-0.2c-0.6-0.4-0.6-0.8-0.2-3c0.6-3.5,3-12,10.6-14c1.8-0.4,3.5-0.6,4.9-0.6
				c3.2,0,5.5,0.8,6.9,2.8c2.4,2.8,1.6,6.1,0.8,10.1c-0.8,3.7-1.8,7.5,0,11.4c2.2,5.1,8.1,8.7,11.8,8.7c0.8,0,1.4-0.2,1.8-0.4
				c1.6-0.8,2-3,2.2-6.5c0.4-3.5,0.8-7.7,3.2-12.6c4.3-8.7,13.8-16,23.9-18.5c3.4-0.8,7.1-1,12.8-1c3,0,6.1,0,9.9,0.2
				c-2.2-0.4-4.3-1-6.3-1.4c-14.2-3.7-27-10.1-36.3-18.1c-21.7-19.5-23.1-48.1-23.1-53.6c-0.2-17,6.5-31.7,9.7-38.8l0.2-0.4
				c2.8-5.9,8.5-17,11.2-22.5c1.8-3.5,3.2-5.9,4.3-7.7c2.4-4.5,3.4-5.9,4.5-9.5c1-2.8,1.6-4.7,2-6.7c1-3.5,1.8-6.3,4.1-10.6
				c3-5.3,5.1-9.7,10.1-11c1-0.2,2-0.4,3.4-0.4c4.1,0,8.3,2,10.4,5.1c0.6,0.8,3.9,5.5,1.6,9.7c-1,1.8-3.2,3.7-5.5,3.7
				c-0.2,0-0.4,0-0.4,0c-3.2-0.4-4.3-3.7-5.5-6.3c-0.8-1.8-1.6-4.1-2.8-4.1l0,0c-1.8,0-5.1,5.1-6.1,10.6c-1,6.1,1.4,11.2,3.2,14
				C227.1-10.8,234-1.7,236.3,0c0,0,0,0,0.2,0c0,0,0.2,0,0.2,0.2l0,0c1.2,0,3.2-2.4,5.1-5.5c1-1.4,2-3.2,3.5-4.5
				c2-2.4,5.1-5.5,11.2-11.2c3.9-3.7,5.7-5.1,7.3-6.3c0.6-0.4,1.2-1,2-1.6c0,0,1.4-1.2,3-2.8c2-2,3.9-4.3,5.9-6.5
				c3.9-4.7,7.5-9.5,12.2-9.5c3.5,0,6.1,2.8,6.9,3.5s4.9,5.3,3,9.3c-0.8,1.6-2.8,3.4-4.9,3.4c-0.4,0-0.6,0-1-0.2
				c-2.2-0.6-3-3.2-3.4-5.3c-0.4-1.4-0.8-3.2-1.4-3.4H286c-0.8,0-2.2,1.2-3,2.4c-1.6,2.8-0.8,7.7,0,11.6c0.2,1.6,0.6,3.2,0.6,4.5
				c0.4,4.1,0.4,8.3,0.4,12.2c0,6.7,0.2,13.6,1.4,20.1c1.8,8.5,5.1,15.8,8.7,23.9c1.4,3.4,3,6.5,4.3,10.1
				c5.9,15.2,6.7,32.7,6.7,44.8c0,4.1-0.2,8.5-0.6,12.4c-0.2,2-0.6,3.9-1,5.9c-0.4,2-0.8,3.9-1,5.9c0.4-0.6,0.8-1.4,1.2-2.8
				c1-3.2,0.2-3.9,1-5.3s2.2-2,5.3-3.4c1.4-0.6,2.4-0.8,2.8-1c4.5-3.4,7.3-7.7,8.9-14c1.8-8.3,0.8-17.2-2.8-27.2
				c-1.8-5.1-4.1-10.3-6.5-15.2c-1-2.2-2.2-4.7-3.4-7.1c-4.3-9.9-6.9-18.1-8.3-26.2c-1.6-10.1-1-19.3,1.4-27.4
				c1.4-4.5,3.4-8.3,5.7-11c3.2-3.5,6.9-5.7,10.8-6.1c0.6,0,1-0.2,1.6-0.2c3.9,0,7.7,1.6,10.4,4.3c3.2,3.2,4.7,7.7,4.1,12.2
				c-0.4,3.2-2,5.9-4.1,7.5c-1.4,1-3.2,1.4-4.7,1.4c-1.4,0-3-0.4-4.1-1.2c-1.4-1-2.2-2.8-2.2-4.1c0-1.8,1.4-3.7,3.4-3.9
				c0.2,0,0.2,0,0.4,0c1.2,0,2.2,0.6,3.2,1c0.6,0.4,1,0.6,1.6,0.8c0.2,0,0.4,0,0.6,0c1.4,0,2.8-1.2,3.2-2.8c0.4-1.6-0.2-3.5-1.4-5.3
				c-1.8-2.2-4.9-3.7-8.3-3.7c-1.4,0-2.8,0.2-3.7,0.8c-3,1.2-5.5,3.9-7.5,8.3c-7.1,14-4.3,30.8-0.6,42.2c1.6,5.3,3.9,10.8,6.3,16.6
				c7.5,17.9,16.2,38.2,4.7,56.4c-1.2,1.8-1.8,3.2-2.2,4.1c6.7-4.9,12-11.8,12-12c0,0,2.2-3.4,4.1-6.9c3.7-8.1,2.8-17.4,1.8-26.6
				c-1-10.1-2-19.5,3.2-26.6c3.9-5.5,11.4-9.3,18.1-9.3c3,0,5.5,0.6,7.7,2c6.5,3.9,9.7,13.6,6.7,20.7c-1.4,3.5-4.5,7.5-9.3,8.3
				c-0.2,0-0.6,0-0.8,0c-3.4,0-7.1-1.8-7.3-4.5c-0.2-1.8,1.6-3.9,3.7-4.3c0.2,0,0.4,0,0.8,0c1.2,0,2,0.6,3.2,1
				c0.8,0.4,1.4,0.8,2.2,0.8c0.2,0,0.2,0,0.4,0c0.8-0.2,1.4-0.6,1.8-1c2.2-1.8,3-5.5,2.8-8.3c-0.6-4.9-4.9-8.9-9.1-10.1
				c-1.2-0.4-2.4-0.6-3.7-0.6c-6.1,0-11.6,4.3-14.2,8.7c-0.6,1.2-1.4,3.2-2,7.7c-0.8,6.3-0.2,10.3,0.4,14.6c0.4,2.4,0.8,4.9,0.8,7.7
				c0.2,5.9,0.8,17.2-5.5,26.4c-4.7,6.9-11,11.6-11.2,11.8c0,0-7.1,5.5-8.5,10.6v0.2c-0.2,1-1.2,3.9-3.4,5.5
				c-1.4,1.2-3.2,1.2-4.3,1.2c-1,0-1.6,0-2,0.6c-1.4,1.6-0.8,3.7-0.4,6.1c0.6,2.8,1.2,5.5-0.8,8.1c-1.6,2-4.5,3.4-7.3,4.3
				c-2.4,1-4.9,2-6.5,3.5c-1,1-3.4,3.2-3.2,5.5c0,0.8,0.4,1.4,1,2.4c0.4,0.4,0.6,1,1.2,1.8c1.8,3.5,3,6.1,3.2,6.5
				c1.4,3.9-0.2,7.3-2,11.2c-0.8,2-1.8,3.9-2.8,6.3c-2.4,8.1-0.4,15.2,0.6,18.9c0.6,2.2,1,3.7-0.4,4.1c-0.2,0-0.2,0-0.4,0
				c-0.4,0-1-0.2-2.2-1.4c-3.2-3.5-7.1-11.8-5.9-20.9c0.4-3.4,1.4-6.1,2.4-8.7c1.4-3.5,2-5.7,1-7.1c-0.4-0.6-1.2-1-2.2-1.4
				c-1.2-0.6-3-1.2-3.9-3.2c-0.4,3-1,6.5-2,9.7c-3,8.1-8.3,12.6-14.4,18.1l-1,0.8c-4.5,4.1-18.1,16.4-40.2,18.9
				C218.4,202.3,214.3,202.7,209.7,202.7z"/>
		</g>
	</g>
	<g>
		
			<image overflow="visible" opacity="0.25" enable-background="new    " width="660" height="764" xlink:href="35572CA9.png"  transform="matrix(0.363 0 0 0.363 142.7822 -64.4746)">
		</image>
		<g>
			<path d="M365.7,42.4c1-0.2,1.8-0.8,2.4-1.2c2.8-2.2,3.4-6.3,3.2-9.1c-0.6-5.1-4.9-9.5-9.7-11c-7.7-2.4-15.8,3-19.1,8.7
				c-0.8,1.2-1.6,3.2-2.2,8.3c-1.2,10.1,1,14.4,1.4,22.5c0.2,5.9,0.8,16.8-5.3,25.8c-4.7,6.7-11,11.6-11,11.6s-7.3,5.7-8.9,11.2
				c0,0,0,0,0,0.2c-0.2,0.8-1,3.5-3,4.9c-2.4,1.8-4.9,0.2-6.3,2c-3.4,3.9,2,10.1-1.2,14.2c-3,3.7-10.4,4.3-14,7.7
				c-1.4,1.4-3.7,3.5-3.4,6.3c0.2,1.4,0.8,2.2,2.4,4.9c1.8,3.4,3,5.9,3.2,6.3c1.8,5.3-2.4,10.1-4.7,17c-3.7,11.8,2.2,21.9,1,22.3
				c-1.2,0.4-8.9-9.9-7.3-21.1c1-7.5,5.9-13.4,3.4-16.6c-1.6-2-4.7-1.6-6.3-4.7c-1-2-0.6-4.1-0.8-4.1c-0.6,0-0.8,8.3-3,14.4
				c-3,8.3-8.7,12.8-15,18.7c-4.9,4.3-18.5,16.2-39.6,18.5c-9.1,1-27.4,3.2-41.6-9.5c-9.7-8.7-14.2-21.1-14.6-29.8
				c-0.2-5.5,0.4-9.5,0.4-9.5c1.2-8.5,5.5-14,3.9-16.8c-1.4-2.4-6.7-2.8-10.4-1.4c-7.3,2.4-7.7,11.8-7.7,11.8s0.8-12.6,10.1-15
				c1.2-0.2,7.7-1.8,10.8,1.6c4.3,4.7-3.4,12.6,0.6,21.1c3,6.3,11,10.6,15.2,8.7c4.5-2,1.2-10.1,5.9-19.7
				c4.5-9.1,14.2-15.8,22.9-17.7c6.1-1.4,13.8-1.2,29.4-0.6c1.2,0,4.3,0.4,4.5,0.2c0-0.4-10.6-2.2-17.2-3.9
				c-3.7-1-21.7-5.5-35.9-17.9c-23.1-20.5-23.3-50.5-23.5-53.2c-0.2-17.2,6.7-32.1,9.9-38.8c2.4-5.5,7.7-16,11.2-22.5
				c5.9-11.2,6.9-12.2,8.9-17.4c2.8-7.3,2.8-10.6,6.1-17.4c3-5.5,4.9-9.3,9.5-10.4c4.3-1.2,9.9,0.4,12.6,4.3
				c0.4,0.6,3.5,4.9,1.6,8.7c-0.8,1.6-3,3.4-4.9,3.2c-4.5-0.6-4.7-10.3-8.3-10.4c-3-0.2-6.3,6.1-7.3,11.6c-1,6.9,1.8,12.6,3.2,14.6
				c3.2,4.7,15,22.1,18.7,24.8c0.2,0.2,0.4,0.4,0.8,0.4c2.8,0.2,4.9-4.7,9.7-10.4c1.8-2.4,4.9-5.3,11-11c5.5-5.1,6.9-5.9,9.5-8.1
				c0,0,1.4-1.2,3.2-2.8c6.5-6.3,11-15.6,17.4-15.8c3.2,0,5.3,2.2,6.1,3.2c0.4,0.4,4.5,4.5,2.8,8.1c-0.8,1.6-3,3.2-4.5,2.4
				c-3.2-0.8-2-7.7-4.9-8.7c-1.6-0.4-3.5,1.6-4.3,3c-2.8,4.3,0.2,12,0.4,16.8c0.8,10.6-0.4,21.9,2,32.5c2.8,12,8.5,22.5,12.8,33.9
				C303,56,304,72,304,86.4c0,4.1-0.2,8.3-0.6,12.2c-0.4,4.5-2,9.7-2,14.2c0.4-0.2,1-0.4,1.4-0.8c2.2-2,1-5.5,2.2-8.3
				c1.4-3.4,6.1-3,8.3-4.5c5.1-3.7,7.7-8.9,9.3-14.6c2-9.5,0.4-18.9-2.8-27.8c-2.8-7.5-6.5-14.8-9.7-22.3c-3.7-8.5-6.7-17-8.3-25.8
				c-1.4-8.9-1.2-18.1,1.4-27c1.2-3.9,3-7.5,5.5-10.6c2.6-3.2,6.3-5.3,10.3-5.7c4.1-0.4,8.5,1,11.2,3.9c3,3,4.3,7.1,3.7,11.2
				c-0.4,2.8-1.6,5.3-3.7,6.7c-2,1.6-5.3,1.8-7.3,0.2c-1-0.8-1.8-2-1.8-3.4s1-2.8,2.2-2.8c1.6-0.2,3.2,1.4,4.7,1.8
				c2,0.6,4.5-1.2,4.9-3.4c0.6-2-0.4-4.5-1.6-6.1c-3.2-3.9-8.7-5.3-13.2-3.4c-3.7,1.6-6.3,5.1-8.3,8.7c-6.5,13.2-5.1,29.2-0.8,43
				c6.9,22.1,26,48.9,11.2,72.2c-1.2,1.8-3.2,4.9-3.2,6.5c0,1-0.4,1,0.4,0.4c0.6-0.4,1-0.8,1.2-1C326,94.9,332,87.4,332,87.4
				s2.2-3.4,4.1-7.1c8.1-17-4.9-39.8,4.7-53c5.3-7.3,17.4-11.2,24.6-6.9c5.9,3.5,9.1,12.6,6.1,19.3c-1.2,3-4.1,6.9-8.3,7.3
				c-3.2,0.2-6.7-1.4-6.9-3.5c-0.2-1.2,1.2-3,2.8-3.4C361.7,40.3,363.1,43,365.7,42.4z"/>
		</g>
	</g>
	<path fill="#B71C1C" d="M234.2,158.9c-0.2,0.2-5.9,5.7-4.1,13.2c1.8,7.7,10.1,10.1,10.6,10.3c6.3,1.6,11.6-1.8,15.4-4.1
		c1.4-1,6.3-4.3,10.6-11.2c7.7-12.4,4.3-21.3,11.8-26.8c1.8-1.2,7.1-4.7,6.9-5.1h-0.2c-3.9-0.4-8.3-2-12-3c-6.9-1.4-6.3-1-10.3-1.6
		c-17.7-2-40-4.7-52.4,5.9c-4.9,4.1-5.9,8.3-6.1,9.3c-0.8,3.9-0.2,8.3,1.4,10.6C210.1,162.3,221.9,164.5,234.2,158.9z"/>
	<path fill="#B71C1C" d="M189.2,173.3c-3.4-2.2-8.5-2.8-10.6,1.4c-1.8,3.2-0.4,7.1,1.8,9.9c3.2,3.7,8.3,6.3,12.8,8.1
		c9.7,3.5,23.1,3.7,25.2,3.7c10.6-0.8,21.1-4.3,30-10.1c-5.9,1.6-12.6,0-17.4-3.9c-4.7-4.1-5.7-9.9-5.1-16
		c-4.5,1.2-10.8-0.6-15.2-2.4c-3.7-1.4-7.3-3.5-11-2.4c-3,0.6-5.3,3.4-6.1,6.5c-1,3.7,0.6,7.7,4.1,10.3"/>
	<path fill="#B71C1C" d="M203-11.2c-2.4,3.4-5.7,8.1-9.1,14.2c-4.7,8.5-11.2,20.5-13.4,35.1c-0.8,5.3-3.4,26.2,9.5,46.5
		c12,19.3,31,26.4,37.7,29.2c11.8,4.5,15.6,3.2,37.5,9.5c10.8,3.2,19.5,6.3,25,8.5c0,0-2.4-5.1-3.9-9.7c-4.7-14.2-6.7-25.2-14-37.1
		c-3.9-6.5-8.7-12.8-14.8-18.5c-14.4-13.6-34.9-22.9-47.7-40.6c-3.5-4.9-5.3-10.1-5.3-10.1c-1.4-4.1-1.8-7.3-2-9.9
		C202,1.8,201.8-4.1,203-11.2z M260.8-19.5l-2.8,3.2l0,0c-0.6-0.4-15.4,18.1-16.6,20.9c-0.8,1.6,7.5,10.6,7.5,10.6l0,0
		c-0.4-1.4-0.4-3-0.6-3.7c0-0.8,0-6.7,3.7-9.7c0.8-0.6,1.6-0.8,1.8-1c2-0.6,3.9,0.2,4.7,0.6c-0.2-0.4-0.6-0.8-1-1.6
		c-1.2-2.4-1-4.7-1-6.3C257.2-12.2,260.4-18.5,260.8-19.5z M294.3,124.4c0.2-8.9-1.6-17.7-3-25.4c-1.2-7.1-2.4-12.2-4.9-19.3
		c-2-5.3-3.9-9.5-5.9-13.6c-3.5-6.5-7.1-11.2-9.5-14.4c-11.4-14.6-19.3-20.9-33.9-37.7c-8.9-10.1-12.4-15.2-13.8-17
		c-6.1-8.7-10.4-16.4-13.4-21.7c-3.9,12.4-3.4,22.5-2.8,28.2c0.4,3.7,1,8.9,3.9,14.6c3.5,7.1,8.3,11.4,11.2,14.4
		c17.5,15.6,24.1,16.6,37.3,29.4c8.1,7.5,12.6,13.8,16.2,19.3c2.8,4.3,4.5,8.5,6.5,12.6C287,104.1,290.4,116.6,294.3,124.4z
		 M298.2,112c0.6-3.7,1-6.5,1.2-9.3c0,0,0.4-4.3,0.8-8.1c1-17.2-4.1-38.1-4.1-38.1c-1.4-4.1-2-7.1-3.2-9.9
		c-4.1-12.2-5.9-13.8-9.7-23.9c-5.3-14.4-6.9-26.8-6.5-32.7c0-0.2,0.2-3,0.4-6.5c0.2-5.5-0.2-7.7-0.2-8.5c-0.2-1.6-0.6-3.9-1.4-6.5
		c-1.6,0.8-10.3,5.3-13.8,15.8c-4.1,12.4,3.2,22.7,3.9,24.1c-3.4-3.2-7.1-4.3-9.9-3.2c-3.2,1.6-3.4,6.3-3.5,7.5
		c-0.6,9.5,8.1,14.4,20.3,30c6.1,7.5,11.8,15.2,16.6,26.4c3.9,9.5,5.7,18.5,6.5,22.9C297.7,100,298.2,106.9,298.2,112z"/>
	<path fill="#E53935" d="M274.2,102.8c-8.1-16.2-16.8-34.9-35.3-46.9c-7.5-4.9-25.4-10.1-28.2,0.8c-1.4,5.7,2.2,10.6,5.3,15.8
		c-2.8,0-5.3-0.2-7.7,0.4c-15.8,4.5-4.7,19.9,5.1,26.2c14.6,9.5,31.2,10.3,46.3,14.2c8.5,2,22.7,7.7,25,12
		C281.1,118.5,276.8,108.3,274.2,102.8z M254.3,106.5c-3.5-0.4-7.1-0.2-10.6-1.2c-6.1-1.8-10.3-5.3-10.6-7.5c-1-4.5,5.1-4.5,8.7-3.7
		c7.1,1.8,19.5,9.9,23.5,14.8C261.4,108.1,258,106.9,254.3,106.5z M272,109.7c-8.1-9.5-21.1-17-34.5-21.9
		c-10.3-3.7-18.7-17.5-18.7-24.8c0.2-8.7,14.6-3.4,18.9-0.6c9.9,6.3,21.7,26.6,27.2,35.3C266.9,100,271.8,106.9,272,109.7z"/>
	<path fill="#E53935" d="M280.7,37.1c-5.3-6.7-3.7-11.4-4.7-19.3c-0.2-2-1.2-3.7-3-4.9c-1-0.8-2.2-1.2-3.4-1.2
		c-1.2-0.2-2.2,0.2-3.2,0.6c-0.8,0.4-1.6,1.4-2,2.4c-1.4,9.5,5.5,16,13.2,20.9C278.9,36.3,279.9,36.7,280.7,37.1z"/>
	<path fill="#E53935" d="M207.2,67.9c-3.7-5.1-6.9-11-5.5-17c0.8-3.9,4.5-6.7,3.9-11.2c-1.4-8.1-12.8-10.4-17.4-4.9
		c-7.1,8.5,0.6,19.5,8.7,26.6C198.7,63.7,203.8,68.3,207.2,67.9z"/>
	<path fill="#E53935" d="M270.4,140.2c-3-2-6.5-3.2-10.1-4.1c-10.8-3.4-23.9-4.3-34.3,1c-6.9,3.7-8.1,12.8,1.8,15
		c8.5,1.6,16.2-5.1,22.1-8.5C257.4,140,263,139.6,270.4,140.2z"/>
	<path fill="#E53935" d="M266.1,142.8c-8.7-0.6-19.3,10.1-20.3,19.3c-0.6,5.3,4.5,10.6,9.1,7.1c4.3-3.5,3.9-12.2,5.1-17.4
		C261,146.9,263.3,145.9,266.1,142.8z"/>
	<path fill="#E53935" d="M226.9,188.5c-1.4,0.2-3.7-1-4.7-1.8c-2.8-1.8-4.3-4.9-4.7-8.3c-0.2-1.8,0-3.9-0.8-5.5
		c-0.8-1.4-2.4-2.2-4.1-1.8c-2.4,0.8-2.2,3.2-2.4,5.1c-1.4-0.8-3-1.8-4.5-0.8c-2.8,1.4-2,4.9-0.8,6.9
		C209.1,189.9,219.6,190.1,226.9,188.5z"/>
</g>
</svg>
